<svg xmlns="http://www.w3.org/2000/svg" xmlns:svg="http://www.w3.org/2000/svg" xmlns:xlink="http://www.w3.org/1999/xlink" id="svg1377" width="48" height="48"><defs id="defs1379"><radialGradient id="radialGradient6719" cx="605.714" cy="486.648" r="117.143" fx="605.714" fy="486.648" gradientTransform="matrix(-2.774389,0,0,1.969706,112.7623,-872.8854)" gradientUnits="userSpaceOnUse" xlink:href="#linearGradient5060"/><linearGradient id="linearGradient5060"><stop id="stop5062" offset="0" stop-color="#000" stop-opacity="1"/><stop id="stop5064" offset="1" stop-color="#000" stop-opacity="0"/></linearGradient><radialGradient id="radialGradient6717" cx="605.714" cy="486.648" r="117.143" fx="605.714" fy="486.648" gradientTransform="matrix(2.774389,0,0,1.969706,-1891.633,-872.8854)" gradientUnits="userSpaceOnUse" xlink:href="#linearGradient5060"/><linearGradient id="linearGradient5048"><stop id="stop5050" offset="0" stop-color="#000" stop-opacity="0"/><stop id="stop5056" offset=".5" stop-color="#000" stop-opacity="1"/><stop id="stop5052" offset="1" stop-color="#000" stop-opacity="0"/></linearGradient><linearGradient id="linearGradient6715" x1="302.857" x2="302.857" y1="366.648" y2="609.505" gradientTransform="matrix(2.774389,0,0,1.969706,-1892.179,-872.8854)" gradientUnits="userSpaceOnUse" xlink:href="#linearGradient5048"/><linearGradient id="aigrd1" x1="4.191" x2="47.32" y1="11.113" y2="56.052" gradientUnits="userSpaceOnUse"><stop id="stop6490" offset="0" stop-color="#D4D4D4"/><stop id="stop6492" offset=".398" stop-color="#E2E2E2"/><stop id="stop6494" offset="1" stop-color="#FFF"/></linearGradient><linearGradient id="linearGradient7451" x1="4.191" x2="47.32" y1="11.113" y2="56.052" gradientUnits="userSpaceOnUse" xlink:href="#aigrd1"/><linearGradient id="linearGradient4126"><stop id="stop4128" offset="0" stop-color="#000" stop-opacity="1"/><stop id="stop4130" offset="1" stop-color="#000" stop-opacity="0"/></linearGradient><radialGradient id="radialGradient7449" cx="23.857" cy="40" r="17.143" fx="23.857" fy="40" gradientTransform="matrix(1,0,0,0.5,2.139286e-14,20)" gradientUnits="userSpaceOnUse" xlink:href="#linearGradient4126"/><linearGradient id="linearGradient5250" x1="8.547" x2="30.851" y1="30.282" y2="48.302" gradientTransform="matrix(0.899009,0,0,0.934235,1.875108,1.193645)" gradientUnits="userSpaceOnUse" xlink:href="#linearGradient6525"/><linearGradient id="linearGradient3922" x1="4.191" x2="47.32" y1="11.113" y2="56.052" gradientUnits="userSpaceOnUse" xlink:href="#aigrd1"/><linearGradient id="linearGradient3924" x1="8.547" x2="30.851" y1="30.282" y2="48.302" gradientTransform="matrix(0.899009,0,0,0.934235,1.875108,1.193645)" gradientUnits="userSpaceOnUse" xlink:href="#linearGradient6525"/><linearGradient id="linearGradient3933" x1="8.547" x2="30.851" y1="30.282" y2="48.302" gradientTransform="matrix(0.899009,0,0,0.934235,1.875108,1.193645)" gradientUnits="userSpaceOnUse" xlink:href="#linearGradient6525"/><linearGradient id="linearGradient3935" x1="4.191" x2="47.32" y1="11.113" y2="56.052" gradientUnits="userSpaceOnUse" xlink:href="#aigrd1"/><linearGradient id="linearGradient3946" x1="4.191" x2="47.32" y1="11.113" y2="56.052" gradientUnits="userSpaceOnUse" xlink:href="#aigrd1"/><linearGradient id="linearGradient3948" x1="8.547" x2="30.851" y1="30.282" y2="48.302" gradientTransform="matrix(0.899009,0,0,0.934235,1.875108,1.193645)" gradientUnits="userSpaceOnUse" xlink:href="#linearGradient6525"/></defs><metadata id="metadata1382"/><g id="layer1"><g id="g7435" transform="matrix(1.566667,0.000000,0.000000,1.566667,-8.925566,-23.94764)"><g id="g6707" display="inline" transform="matrix(1.444074e-2,0,0,1.331973e-2,33.38871,40.40337)"><rect id="rect6709" width="1339.633" height="478.357" x="-1559.252" y="-150.697" fill="url(#linearGradient6715)" fill-opacity="1" fill-rule="nonzero" stroke="none" stroke-dasharray="none" stroke-dashoffset="0" stroke-linecap="round" stroke-linejoin="miter" stroke-miterlimit="4" stroke-opacity="1" stroke-width="1" marker-end="none" marker-mid="none" marker-start="none" color="#000" display="inline" opacity=".402" overflow="visible" visibility="visible" style="marker:none"/><path id="path6711" fill="url(#radialGradient6717)" fill-opacity="1" fill-rule="nonzero" stroke="none" stroke-dasharray="none" stroke-dashoffset="0" stroke-linecap="round" stroke-linejoin="miter" stroke-miterlimit="4" stroke-opacity="1" stroke-width="1" marker-end="none" marker-mid="none" marker-start="none" d="M -219.61876,-150.68038 C -219.61876,-150.68038 -219.61876,327.65041 -219.61876,327.65041 C -76.744594,328.55086 125.78146,220.48075 125.78138,88.454235 C 125.78138,-43.572302 -33.655436,-150.68036 -219.61876,-150.68038 z" color="#000" display="inline" opacity=".402" overflow="visible" visibility="visible" style="marker:none"/><path stroke-width="1" style="marker:none" id="path6713" fill="url(#radialGradient6719)" fill-opacity="1" fill-rule="nonzero" stroke="none" stroke-dasharray="none" stroke-dashoffset="0" stroke-linecap="round" stroke-linejoin="miter" stroke-miterlimit="4" stroke-opacity="1" marker-end="none" marker-mid="none" marker-start="none" d="M -1559.2523,-150.68038 C -1559.2523,-150.68038 -1559.2523,327.65041 -1559.2523,327.65041 C -1702.1265,328.55086 -1904.6525,220.48075 -1904.6525,88.454235 C -1904.6525,-43.572302 -1745.2157,-150.68036 -1559.2523,-150.68038 z" color="#000" display="inline" opacity=".402" overflow="visible" visibility="visible"/></g><g id="g3937" transform="matrix(1,0,4.537846e-3,1,-0.138907,-1.394718e-15)"><path id="path6485" fill="#c00" fill-rule="nonzero" stroke="#9f0000" stroke-dasharray="none" stroke-miterlimit="4" stroke-opacity="1" stroke-width=".638" d="M 33.282781,38.644744 L 22.407791,18.394765 C 22.095292,17.832266 21.532792,17.519767 20.907793,17.519767 C 20.282793,17.519767 19.720294,17.894765 19.407795,18.457265 L 8.7828048,38.707245 C 8.5328048,39.207244 8.5328048,39.894744 8.8453048,40.394743 C 9.1578038,40.894743 9.6578038,41.144742 10.282804,41.144742 L 31.782782,41.144742 C 32.407781,41.144742 32.97028,40.832243 33.220281,40.332243 C 33.53278,39.832243 33.53278,39.207244 33.282781,38.644744 z" transform="matrix(1,0,-8.726683e-3,1,0.328074,1.276596)"/><g id="g6487" fill-rule="nonzero" stroke="#000" stroke-miterlimit="4" transform="matrix(0.625,0,-5.534934e-3,0.634254,6.164053,15.76055)"><linearGradient id="linearGradient6525" x1="4.191" x2="47.32" y1="11.113" y2="56.052" gradientUnits="userSpaceOnUse"><stop id="stop6529" offset="0" stop-color="#fff" stop-opacity="1"/><stop id="stop6531" offset="1" stop-color="#fff" stop-opacity=".34"/></linearGradient><path id="path6496" fill="url(#linearGradient3946)" stroke="none" d="M 9.5,37.6 C 9.2,38.1 9.5,38.5 10,38.5 L 38.2,38.5 C 38.7,38.5 39,38.1 38.7,37.6 L 24.4,11 C 24.1,10.5 23.7,10.5 23.5,11 L 9.5,37.6 z"/></g><path id="path1325" fill="none" fill-opacity="1" fill-rule="nonzero" stroke="url(#linearGradient3948)" stroke-dasharray="none" stroke-miterlimit="4" stroke-opacity="1" stroke-width=".638" d="M 32.323106,38.183905 L 22.150271,19.265666 C 21.71698,18.45069 21.561698,18.189213 20.908406,18.189213 C 20.346525,18.189213 20.054127,18.57002 19.651305,19.339291 L 9.7489285,38.242296 C 9.1737649,39.303588 9.1128238,39.580228 9.3937644,40.047345 C 9.6747034,40.514462 10.032797,40.48902 11.356441,40.519491 L 30.974593,40.519491 C 32.206825,40.534726 32.483988,40.440837 32.70874,39.97372 C 32.989681,39.506602 32.867799,39.136 32.323106,38.183905 z" opacity=".5" transform="matrix(1,0,-8.726683e-3,1,0.318277,1.276596)"/></g><g id="g6498" fill-rule="nonzero" stroke="#000" stroke-miterlimit="4" transform="matrix(0.555088,0,0,0.555052,7.749711,17.80196)"><path id="path6500" stroke="none" d="M 23.9,36.5 C 22.6,36.5 21.6,35.5 21.6,34.2 C 21.6,32.8 22.5,31.9 23.9,31.9 C 25.3,31.9 26.1,32.8 26.2,34.2 C 26.2,35.5 25.3,36.5 23.9,36.5 L 23.9,36.5 z M 22.5,30.6 L 21.9,19.1 L 25.9,19.1 L 25.3,30.6 L 22.4,30.6 L 22.5,30.6 z"/></g></g></g></svg>